<?xml version="1.0" standalone="no"?>
<!DOCTYPE svg PUBLIC "-//W3C//DTD SVG 20010904//EN"
 "http://www.w3.org/TR/2001/REC-SVG-20010904/DTD/svg10.dtd">
<svg version="1.0" xmlns="http://www.w3.org/2000/svg"
 width="700.000000pt" height="700.000000pt" viewBox="0 0 700.000000 700.000000"
 preserveAspectRatio="xMidYMid meet">
<metadata>
Created by potrace 1.14, written by Peter Selinger 2001-2017
</metadata>
<g transform="translate(0.000000,700.000000) scale(0.100000,-0.100000)"
fill="#000000" stroke="none">
<path d="M3375 6198 c-3 -7 -6 -457 -8 -1000 l-2 -987 -374 924 -374 923 -51
-20 c-28 -11 -82 -32 -119 -47 -57 -22 -67 -29 -63 -46 3 -11 172 -432 376
-934 203 -503 368 -916 366 -918 -2 -2 -326 317 -720 708 l-717 713 -92 -93
-92 -93 725 -719 c514 -510 715 -715 690 -705 -1421 576 -1829 740 -1845 743
-18 4 -27 -11 -68 -112 -27 -65 -47 -118 -45 -120 2 -1 420 -170 929 -376
l925 -374 -1003 -3 -1003 -2 0 -130 0 -130 1006 -2 1007 -3 -924 -369 c-508
-203 -928 -372 -932 -376 -7 -6 79 -240 89 -240 2 0 426 169 941 375 515 206
938 373 940 371 2 -2 -319 -324 -713 -716 l-717 -712 92 -92 91 -91 288 285
c158 157 484 481 725 720 319 317 434 426 423 400 -7 -19 -179 -438 -381 -930
-202 -492 -370 -902 -372 -910 -3 -12 25 -27 113 -63 65 -26 121 -43 124 -39
4 4 175 418 381 921 l374 913 3 -996 2 -996 130 0 130 0 0 998 c1 836 3 993
14 972 7 -14 177 -429 377 -922 199 -494 368 -898 374 -898 6 0 60 20 120 44
71 29 109 50 107 58 -2 7 -172 429 -378 937 -205 509 -372 927 -369 929 3 3
326 -315 718 -706 392 -392 717 -712 723 -712 5 0 49 40 97 88 l88 88 -723
719 c-398 396 -716 716 -708 713 8 -3 433 -175 944 -382 511 -207 933 -373
937 -369 7 8 40 85 79 183 l19 48 -936 378 -936 379 1011 3 1012 2 0 130 0
130 -1000 2 -1000 3 925 369 c509 203 925 373 925 378 0 4 -21 60 -47 122
l-46 114 -46 -18 c-25 -10 -431 -172 -901 -360 -470 -188 -877 -351 -905 -361
-46 -17 6 37 675 701 l724 721 -94 89 -95 88 -275 -271 c-151 -150 -474 -470
-717 -712 -244 -242 -443 -437 -443 -433 0 3 171 423 380 932 209 510 380 928
380 930 0 11 -232 98 -240 90 -4 -5 -176 -418 -381 -919 -205 -500 -376 -914
-381 -919 -4 -6 -8 443 -8 997 l0 1007 -125 0 c-91 0 -127 -3 -130 -12z"/>
</g>
</svg>
